<mxfile host="65bd71144e" pages="3">
    <diagram id="Z94RLhPxU36F0JbX2Kmo" name="PRINCIPAL">
        <mxGraphModel dx="683" dy="398" grid="1" gridSize="10" guides="1" tooltips="1" connect="1" arrows="1" fold="1" page="1" pageScale="1" pageWidth="1169" pageHeight="827" math="0" shadow="0">
            <root>
                <mxCell id="0"/>
                <mxCell id="1" parent="0"/>
                <mxCell id="3xquVJFaSn-gZLJKh9fl-9" value="" style="edgeStyle=orthogonalEdgeStyle;rounded=0;orthogonalLoop=1;jettySize=auto;html=1;" parent="1" source="3xquVJFaSn-gZLJKh9fl-1" target="3xquVJFaSn-gZLJKh9fl-8" edge="1">
                    <mxGeometry relative="1" as="geometry"/>
                </mxCell>
                <mxCell id="3xquVJFaSn-gZLJKh9fl-11" value="" style="edgeStyle=orthogonalEdgeStyle;rounded=0;orthogonalLoop=1;jettySize=auto;html=1;" parent="1" source="3xquVJFaSn-gZLJKh9fl-1" target="3xquVJFaSn-gZLJKh9fl-6" edge="1">
                    <mxGeometry relative="1" as="geometry"/>
                </mxCell>
                <mxCell id="3xquVJFaSn-gZLJKh9fl-13" value="" style="edgeStyle=orthogonalEdgeStyle;rounded=0;orthogonalLoop=1;jettySize=auto;html=1;" parent="1" source="3xquVJFaSn-gZLJKh9fl-1" target="3xquVJFaSn-gZLJKh9fl-12" edge="1">
                    <mxGeometry relative="1" as="geometry"/>
                </mxCell>
                <mxCell id="3xquVJFaSn-gZLJKh9fl-15" value="" style="edgeStyle=orthogonalEdgeStyle;rounded=0;orthogonalLoop=1;jettySize=auto;html=1;" parent="1" source="3xquVJFaSn-gZLJKh9fl-1" target="3xquVJFaSn-gZLJKh9fl-14" edge="1">
                    <mxGeometry relative="1" as="geometry"/>
                </mxCell>
                <mxCell id="3xquVJFaSn-gZLJKh9fl-18" style="edgeStyle=orthogonalEdgeStyle;rounded=0;orthogonalLoop=1;jettySize=auto;html=1;exitX=1;exitY=1;exitDx=0;exitDy=0;entryX=0;entryY=0;entryDx=0;entryDy=0;" parent="1" source="3xquVJFaSn-gZLJKh9fl-1" target="3xquVJFaSn-gZLJKh9fl-16" edge="1">
                    <mxGeometry relative="1" as="geometry"/>
                </mxCell>
                <mxCell id="3xquVJFaSn-gZLJKh9fl-1" value="Selección de modo" style="ellipse;whiteSpace=wrap;html=1;" parent="1" vertex="1">
                    <mxGeometry x="525" y="360" width="120" height="80" as="geometry"/>
                </mxCell>
                <mxCell id="3xquVJFaSn-gZLJKh9fl-4" value="" style="endArrow=classic;html=1;" parent="1" edge="1">
                    <mxGeometry width="50" height="50" relative="1" as="geometry">
                        <mxPoint x="505" y="230" as="sourcePoint"/>
                        <mxPoint x="545" y="260" as="targetPoint"/>
                        <Array as="points">
                            <mxPoint x="535" y="240"/>
                        </Array>
                    </mxGeometry>
                </mxCell>
                <mxCell id="3xquVJFaSn-gZLJKh9fl-5" value="reset" style="text;html=1;strokeColor=none;fillColor=none;align=center;verticalAlign=middle;whiteSpace=wrap;rounded=0;" parent="1" vertex="1">
                    <mxGeometry x="465" y="210" width="40" height="20" as="geometry"/>
                </mxCell>
                <mxCell id="3xquVJFaSn-gZLJKh9fl-6" value="CDR_Automático_MEF" style="ellipse;whiteSpace=wrap;html=1;" parent="1" vertex="1">
                    <mxGeometry x="525" y="470" width="120" height="80" as="geometry"/>
                </mxCell>
                <mxCell id="3xquVJFaSn-gZLJKh9fl-8" value="Configuración_MEF" style="ellipse;whiteSpace=wrap;html=1;" parent="1" vertex="1">
                    <mxGeometry x="685" y="360" width="120" height="80" as="geometry"/>
                </mxCell>
                <mxCell id="3xquVJFaSn-gZLJKh9fl-12" value="inicialización&lt;br&gt;setup" style="ellipse;whiteSpace=wrap;html=1;" parent="1" vertex="1">
                    <mxGeometry x="525" y="250" width="120" height="80" as="geometry"/>
                </mxCell>
                <mxCell id="3xquVJFaSn-gZLJKh9fl-14" value="Manual_MEF" style="ellipse;whiteSpace=wrap;html=1;" parent="1" vertex="1">
                    <mxGeometry x="355" y="360" width="120" height="80" as="geometry"/>
                </mxCell>
                <mxCell id="3xquVJFaSn-gZLJKh9fl-16" value="Información" style="rounded=1;whiteSpace=wrap;html=1;" parent="1" vertex="1">
                    <mxGeometry x="695" y="470" width="120" height="60" as="geometry"/>
                </mxCell>
                <mxCell id="3xquVJFaSn-gZLJKh9fl-22" value="Text" style="text;html=1;strokeColor=none;fillColor=none;align=center;verticalAlign=middle;whiteSpace=wrap;rounded=0;" parent="1" vertex="1">
                    <mxGeometry x="480" y="260" width="40" height="20" as="geometry"/>
                </mxCell>
                <mxCell id="3xquVJFaSn-gZLJKh9fl-23" value="&lt;font style=&quot;font-size: 43px&quot;&gt;Estructura principal&lt;/font&gt;" style="text;html=1;align=center;verticalAlign=middle;resizable=0;points=[];autosize=1;strokeColor=none;fillColor=none;" parent="1" vertex="1">
                    <mxGeometry x="395" y="130" width="380" height="30" as="geometry"/>
                </mxCell>
            </root>
        </mxGraphModel>
    </diagram>
    <diagram id="2yHrIm8f3ps8T4j3jmnp" name="Automático">
        <mxGraphModel dx="1171" dy="683" grid="1" gridSize="10" guides="1" tooltips="1" connect="1" arrows="1" fold="1" page="1" pageScale="1" pageWidth="1169" pageHeight="827" math="0" shadow="0">
            <root>
                <mxCell id="VG5reM1JGWSKIXkfuv2--0"/>
                <mxCell id="VG5reM1JGWSKIXkfuv2--1" parent="VG5reM1JGWSKIXkfuv2--0"/>
                <mxCell id="IKDUR3-SzPnZCtvIDeNq-2" value="" style="edgeStyle=orthogonalEdgeStyle;rounded=0;orthogonalLoop=1;jettySize=auto;html=1;" parent="VG5reM1JGWSKIXkfuv2--1" source="IKDUR3-SzPnZCtvIDeNq-0" target="IKDUR3-SzPnZCtvIDeNq-1" edge="1">
                    <mxGeometry relative="1" as="geometry"/>
                </mxCell>
                <mxCell id="IKDUR3-SzPnZCtvIDeNq-0" value="INICIO&lt;br&gt;" style="ellipse;whiteSpace=wrap;html=1;" parent="VG5reM1JGWSKIXkfuv2--1" vertex="1">
                    <mxGeometry x="550" y="80" width="120" height="80" as="geometry"/>
                </mxCell>
                <mxCell id="OKmjE9kdb7iJSz0pzcYx-2" value="" style="edgeStyle=orthogonalEdgeStyle;rounded=0;orthogonalLoop=1;jettySize=auto;html=1;" parent="VG5reM1JGWSKIXkfuv2--1" source="IKDUR3-SzPnZCtvIDeNq-1" target="OKmjE9kdb7iJSz0pzcYx-1" edge="1">
                    <mxGeometry relative="1" as="geometry"/>
                </mxCell>
                <mxCell id="OKmjE9kdb7iJSz0pzcYx-10" value="" style="edgeStyle=orthogonalEdgeStyle;rounded=0;orthogonalLoop=1;jettySize=auto;html=1;" parent="VG5reM1JGWSKIXkfuv2--1" source="IKDUR3-SzPnZCtvIDeNq-1" target="OKmjE9kdb7iJSz0pzcYx-9" edge="1">
                    <mxGeometry relative="1" as="geometry"/>
                </mxCell>
                <mxCell id="O9b6qV9GZZZ8CBMbTgFU-3" style="edgeStyle=orthogonalEdgeStyle;rounded=0;orthogonalLoop=1;jettySize=auto;html=1;exitX=0;exitY=0.5;exitDx=0;exitDy=0;fontSize=18;" parent="VG5reM1JGWSKIXkfuv2--1" source="IKDUR3-SzPnZCtvIDeNq-1" edge="1">
                    <mxGeometry relative="1" as="geometry">
                        <mxPoint x="600" y="230" as="targetPoint"/>
                    </mxGeometry>
                </mxCell>
                <mxCell id="IKDUR3-SzPnZCtvIDeNq-1" value="Sensor_Suelo" style="ellipse;whiteSpace=wrap;html=1;" parent="VG5reM1JGWSKIXkfuv2--1" vertex="1">
                    <mxGeometry x="550" y="240" width="120" height="80" as="geometry"/>
                </mxCell>
                <mxCell id="IKDUR3-SzPnZCtvIDeNq-3" value="lcd: &quot;automático&quot;/&lt;br&gt;lectura sensor de suelo y promedio" style="text;html=1;strokeColor=none;fillColor=none;align=center;verticalAlign=middle;whiteSpace=wrap;rounded=0;" parent="VG5reM1JGWSKIXkfuv2--1" vertex="1">
                    <mxGeometry x="620" y="160" width="160" height="40" as="geometry"/>
                </mxCell>
                <mxCell id="OKmjE9kdb7iJSz0pzcYx-0" value="CDR_Automático_MEF" style="text;html=1;strokeColor=none;fillColor=none;align=center;verticalAlign=middle;whiteSpace=wrap;rounded=0;" parent="VG5reM1JGWSKIXkfuv2--1" vertex="1">
                    <mxGeometry x="585" y="20" width="40" height="20" as="geometry"/>
                </mxCell>
                <mxCell id="OKmjE9kdb7iJSz0pzcYx-11" style="edgeStyle=orthogonalEdgeStyle;rounded=0;orthogonalLoop=1;jettySize=auto;html=1;exitX=0.5;exitY=1;exitDx=0;exitDy=0;entryX=1;entryY=0.5;entryDx=0;entryDy=0;" parent="VG5reM1JGWSKIXkfuv2--1" source="OKmjE9kdb7iJSz0pzcYx-1" target="OKmjE9kdb7iJSz0pzcYx-9" edge="1">
                    <mxGeometry relative="1" as="geometry"/>
                </mxCell>
                <mxCell id="OKmjE9kdb7iJSz0pzcYx-12" style="edgeStyle=orthogonalEdgeStyle;rounded=0;orthogonalLoop=1;jettySize=auto;html=1;exitX=1;exitY=0.5;exitDx=0;exitDy=0;" parent="VG5reM1JGWSKIXkfuv2--1" source="OKmjE9kdb7iJSz0pzcYx-1" edge="1">
                    <mxGeometry relative="1" as="geometry">
                        <mxPoint x="930" y="450" as="targetPoint"/>
                        <Array as="points">
                            <mxPoint x="1010" y="280"/>
                            <mxPoint x="1010" y="450"/>
                        </Array>
                    </mxGeometry>
                </mxCell>
                <mxCell id="OKmjE9kdb7iJSz0pzcYx-1" value="Riego" style="ellipse;whiteSpace=wrap;html=1;" parent="VG5reM1JGWSKIXkfuv2--1" vertex="1">
                    <mxGeometry x="870" y="240" width="120" height="80" as="geometry"/>
                </mxCell>
                <mxCell id="OKmjE9kdb7iJSz0pzcYx-3" value="Sensor_suelo_muestras ==10/&lt;br&gt;Sensor_suelo_promedio" style="text;html=1;strokeColor=none;fillColor=none;align=center;verticalAlign=middle;whiteSpace=wrap;rounded=0;" parent="VG5reM1JGWSKIXkfuv2--1" vertex="1">
                    <mxGeometry x="670" y="240" width="190" height="20" as="geometry"/>
                </mxCell>
                <mxCell id="OKmjE9kdb7iJSz0pzcYx-6" value="promedio&amp;lt;= referencia/&lt;br&gt;&lt;span style=&quot;background-color: rgb(255 , 0 , 0)&quot;&gt;Señal_encender bomba&lt;/span&gt;" style="text;html=1;strokeColor=none;fillColor=none;align=center;verticalAlign=middle;whiteSpace=wrap;rounded=0;" parent="VG5reM1JGWSKIXkfuv2--1" vertex="1">
                    <mxGeometry x="1019" y="350" width="150" height="60" as="geometry"/>
                </mxCell>
                <mxCell id="OKmjE9kdb7iJSz0pzcYx-8" value="&lt;br&gt;&lt;br&gt;&lt;span style=&quot;color: rgb(0 , 0 , 0) ; font-family: &amp;#34;helvetica&amp;#34; ; font-size: 12px ; font-style: normal ; font-weight: 400 ; letter-spacing: normal ; text-align: center ; text-indent: 0px ; text-transform: none ; word-spacing: 0px ; background-color: rgb(248 , 249 , 250) ; display: inline ; float: none&quot;&gt;promedio&amp;gt;= referencia*1.05 /&lt;/span&gt;&lt;br style=&quot;color: rgb(0 , 0 , 0) ; font-family: &amp;#34;helvetica&amp;#34; ; font-size: 12px ; font-style: normal ; font-weight: 400 ; letter-spacing: normal ; text-align: center ; text-indent: 0px ; text-transform: none ; word-spacing: 0px ; background-color: rgb(248 , 249 , 250)&quot;&gt;&lt;span style=&quot;color: rgb(0 , 0 , 0) ; font-family: &amp;#34;helvetica&amp;#34; ; font-size: 12px ; font-style: normal ; font-weight: 400 ; letter-spacing: normal ; text-align: center ; text-indent: 0px ; text-transform: none ; word-spacing: 0px ; display: inline ; float: none ; background-color: rgb(255 , 0 , 0)&quot;&gt;Señal_apagar bomba&lt;/span&gt;" style="text;html=1;strokeColor=none;fillColor=none;align=center;verticalAlign=middle;whiteSpace=wrap;rounded=0;" parent="VG5reM1JGWSKIXkfuv2--1" vertex="1">
                    <mxGeometry x="760" y="330" width="170" height="70" as="geometry"/>
                </mxCell>
                <mxCell id="OKmjE9kdb7iJSz0pzcYx-18" style="edgeStyle=orthogonalEdgeStyle;rounded=0;orthogonalLoop=1;jettySize=auto;html=1;exitX=1;exitY=1;exitDx=0;exitDy=0;" parent="VG5reM1JGWSKIXkfuv2--1" source="OKmjE9kdb7iJSz0pzcYx-9" target="OKmjE9kdb7iJSz0pzcYx-17" edge="1">
                    <mxGeometry relative="1" as="geometry">
                        <Array as="points">
                            <mxPoint x="652" y="540"/>
                            <mxPoint x="940" y="540"/>
                        </Array>
                    </mxGeometry>
                </mxCell>
                <mxCell id="OKmjE9kdb7iJSz0pzcYx-23" value="" style="edgeStyle=orthogonalEdgeStyle;rounded=0;orthogonalLoop=1;jettySize=auto;html=1;" parent="VG5reM1JGWSKIXkfuv2--1" source="OKmjE9kdb7iJSz0pzcYx-9" target="OKmjE9kdb7iJSz0pzcYx-22" edge="1">
                    <mxGeometry relative="1" as="geometry"/>
                </mxCell>
                <mxCell id="OKmjE9kdb7iJSz0pzcYx-9" value="Sensor_DHT11" style="ellipse;whiteSpace=wrap;html=1;" parent="VG5reM1JGWSKIXkfuv2--1" vertex="1">
                    <mxGeometry x="550" y="410" width="120" height="80" as="geometry"/>
                </mxCell>
                <mxCell id="OKmjE9kdb7iJSz0pzcYx-14" value="Sensor_suelo_Muestras&amp;lt;10" style="text;html=1;align=center;verticalAlign=middle;resizable=0;points=[];autosize=1;strokeColor=none;fillColor=none;" parent="VG5reM1JGWSKIXkfuv2--1" vertex="1">
                    <mxGeometry x="425" y="340" width="170" height="20" as="geometry"/>
                </mxCell>
                <mxCell id="OKmjE9kdb7iJSz0pzcYx-15" value="Sensor_DHT_muestras_temp ==10 &amp;amp;&amp;amp;Sensor_DHT_muestras_hum ==10&lt;br&gt;/&lt;br&gt;Sensor_DHT_prom_temp&amp;nbsp;&lt;br&gt;Sensor_DHT_prom_hum&amp;nbsp;" style="text;html=1;strokeColor=none;fillColor=none;align=center;verticalAlign=middle;whiteSpace=wrap;rounded=0;" parent="VG5reM1JGWSKIXkfuv2--1" vertex="1">
                    <mxGeometry x="680" y="460" width="260" height="80" as="geometry"/>
                </mxCell>
                <mxCell id="OKmjE9kdb7iJSz0pzcYx-25" style="edgeStyle=orthogonalEdgeStyle;rounded=0;orthogonalLoop=1;jettySize=auto;html=1;exitX=0;exitY=0.5;exitDx=0;exitDy=0;entryX=1;entryY=0.5;entryDx=0;entryDy=0;" parent="VG5reM1JGWSKIXkfuv2--1" source="OKmjE9kdb7iJSz0pzcYx-17" target="OKmjE9kdb7iJSz0pzcYx-22" edge="1">
                    <mxGeometry relative="1" as="geometry"/>
                </mxCell>
                <mxCell id="OKmjE9kdb7iJSz0pzcYx-26" style="edgeStyle=orthogonalEdgeStyle;rounded=0;orthogonalLoop=1;jettySize=auto;html=1;exitX=1;exitY=0.5;exitDx=0;exitDy=0;" parent="VG5reM1JGWSKIXkfuv2--1" source="OKmjE9kdb7iJSz0pzcYx-17" edge="1">
                    <mxGeometry relative="1" as="geometry">
                        <mxPoint x="780" y="710" as="targetPoint"/>
                        <Array as="points">
                            <mxPoint x="1020" y="620"/>
                            <mxPoint x="1020" y="710"/>
                        </Array>
                    </mxGeometry>
                </mxCell>
                <mxCell id="OKmjE9kdb7iJSz0pzcYx-17" value="Ventiralción" style="ellipse;whiteSpace=wrap;html=1;" parent="VG5reM1JGWSKIXkfuv2--1" vertex="1">
                    <mxGeometry x="880" y="580" width="120" height="80" as="geometry"/>
                </mxCell>
                <mxCell id="OKmjE9kdb7iJSz0pzcYx-19" value="promedio&amp;lt;= referencia/&lt;br&gt;&lt;span style=&quot;background-color: rgb(255 , 0 , 0)&quot;&gt;Señal_encender FAN&lt;/span&gt;" style="text;html=1;strokeColor=none;fillColor=none;align=center;verticalAlign=middle;whiteSpace=wrap;rounded=0;" parent="VG5reM1JGWSKIXkfuv2--1" vertex="1">
                    <mxGeometry x="1020" y="630" width="130" height="60" as="geometry"/>
                </mxCell>
                <mxCell id="OKmjE9kdb7iJSz0pzcYx-20" value="promedio&amp;lt;= referencia/&lt;br&gt;&lt;span style=&quot;background-color: rgb(255 , 0 , 0)&quot;&gt;Señal_apagar FAN&lt;/span&gt;" style="text;html=1;strokeColor=none;fillColor=none;align=center;verticalAlign=middle;whiteSpace=wrap;rounded=0;" parent="VG5reM1JGWSKIXkfuv2--1" vertex="1">
                    <mxGeometry x="710" y="560" width="150" height="60" as="geometry"/>
                </mxCell>
                <mxCell id="OKmjE9kdb7iJSz0pzcYx-28" style="edgeStyle=orthogonalEdgeStyle;rounded=0;orthogonalLoop=1;jettySize=auto;html=1;exitX=0;exitY=0.5;exitDx=0;exitDy=0;entryX=0;entryY=0.5;entryDx=0;entryDy=0;" parent="VG5reM1JGWSKIXkfuv2--1" source="OKmjE9kdb7iJSz0pzcYx-22" target="IKDUR3-SzPnZCtvIDeNq-0" edge="1">
                    <mxGeometry relative="1" as="geometry">
                        <mxPoint x="200" y="73" as="targetPoint"/>
                        <Array as="points">
                            <mxPoint x="390" y="710"/>
                            <mxPoint x="390" y="120"/>
                        </Array>
                    </mxGeometry>
                </mxCell>
                <mxCell id="OKmjE9kdb7iJSz0pzcYx-22" value="Sensor_LDR" style="ellipse;whiteSpace=wrap;html=1;" parent="VG5reM1JGWSKIXkfuv2--1" vertex="1">
                    <mxGeometry x="550" y="670" width="120" height="80" as="geometry"/>
                </mxCell>
                <mxCell id="OKmjE9kdb7iJSz0pzcYx-24" value="Muestras &amp;lt; 10" style="text;html=1;strokeColor=none;fillColor=none;align=center;verticalAlign=middle;whiteSpace=wrap;rounded=0;" parent="VG5reM1JGWSKIXkfuv2--1" vertex="1">
                    <mxGeometry x="440" y="570" width="110" height="20" as="geometry"/>
                </mxCell>
                <mxCell id="OKmjE9kdb7iJSz0pzcYx-27" value="&lt;span style=&quot;background-color: rgb(255 , 204 , 153)&quot;&gt;Todavía no decidí como usar el dato de la luz&lt;/span&gt;" style="text;html=1;strokeColor=#d6b656;fillColor=#fff2cc;align=center;verticalAlign=middle;whiteSpace=wrap;rounded=0;" parent="VG5reM1JGWSKIXkfuv2--1" vertex="1">
                    <mxGeometry x="720" y="740" width="150" height="40" as="geometry"/>
                </mxCell>
                <mxCell id="OKmjE9kdb7iJSz0pzcYx-29" value="/&lt;br&gt;ENVIAR PROMEDIOS LCD&lt;br&gt;LIMPIAR VARIABLES MUESTRA" style="text;html=1;strokeColor=none;fillColor=none;align=center;verticalAlign=middle;whiteSpace=wrap;rounded=0;" parent="VG5reM1JGWSKIXkfuv2--1" vertex="1">
                    <mxGeometry x="40" y="340" width="190" height="80" as="geometry"/>
                </mxCell>
                <mxCell id="O9b6qV9GZZZ8CBMbTgFU-4" value="muestras&amp;lt;10" style="text;html=1;strokeColor=none;fillColor=none;align=center;verticalAlign=middle;whiteSpace=wrap;rounded=0;fontSize=12;" parent="VG5reM1JGWSKIXkfuv2--1" vertex="1">
                    <mxGeometry x="450" y="240" width="40" height="20" as="geometry"/>
                </mxCell>
            </root>
        </mxGraphModel>
    </diagram>
    <diagram id="McJcfVEzGvFuaT09IdFO" name="ACTUADORES">
        <mxGraphModel dx="820" dy="478" grid="1" gridSize="10" guides="1" tooltips="1" connect="1" arrows="1" fold="1" page="1" pageScale="1" pageWidth="1169" pageHeight="827" math="0" shadow="0">
            <root>
                <mxCell id="_UozBr8ZX9ysjcTVr0fY-0"/>
                <mxCell id="_UozBr8ZX9ysjcTVr0fY-1" parent="_UozBr8ZX9ysjcTVr0fY-0"/>
                <mxCell id="tEBrmEwOVEdCtfjYQCAZ-4" value="" style="edgeStyle=orthogonalEdgeStyle;rounded=0;orthogonalLoop=1;jettySize=auto;html=1;" parent="_UozBr8ZX9ysjcTVr0fY-1" source="tEBrmEwOVEdCtfjYQCAZ-0" target="tEBrmEwOVEdCtfjYQCAZ-3" edge="1">
                    <mxGeometry relative="1" as="geometry"/>
                </mxCell>
                <mxCell id="avJ5hf5BwxIhJb6G5Y0v-0" style="edgeStyle=orthogonalEdgeStyle;rounded=0;orthogonalLoop=1;jettySize=auto;html=1;exitX=1;exitY=1;exitDx=0;exitDy=0;entryX=0.5;entryY=0;entryDx=0;entryDy=0;" parent="_UozBr8ZX9ysjcTVr0fY-1" source="tEBrmEwOVEdCtfjYQCAZ-0" target="avJ5hf5BwxIhJb6G5Y0v-1" edge="1">
                    <mxGeometry relative="1" as="geometry">
                        <mxPoint x="850" y="280" as="targetPoint"/>
                    </mxGeometry>
                </mxCell>
                <mxCell id="tEBrmEwOVEdCtfjYQCAZ-0" value="Bomba _ Inicio" style="ellipse;whiteSpace=wrap;html=1;" parent="_UozBr8ZX9ysjcTVr0fY-1" vertex="1">
                    <mxGeometry x="524" y="110" width="120" height="80" as="geometry"/>
                </mxCell>
                <mxCell id="tEBrmEwOVEdCtfjYQCAZ-1" value="" style="endArrow=classic;html=1;entryX=0;entryY=0;entryDx=0;entryDy=0;" parent="_UozBr8ZX9ysjcTVr0fY-1" target="tEBrmEwOVEdCtfjYQCAZ-0" edge="1">
                    <mxGeometry width="50" height="50" relative="1" as="geometry">
                        <mxPoint x="490" y="100" as="sourcePoint"/>
                        <mxPoint x="450" y="80" as="targetPoint"/>
                        <Array as="points">
                            <mxPoint x="530" y="100"/>
                        </Array>
                    </mxGeometry>
                </mxCell>
                <mxCell id="tEBrmEwOVEdCtfjYQCAZ-2" value="Reset" style="text;html=1;strokeColor=none;fillColor=none;align=center;verticalAlign=middle;whiteSpace=wrap;rounded=0;" parent="_UozBr8ZX9ysjcTVr0fY-1" vertex="1">
                    <mxGeometry x="450" y="90" width="40" height="20" as="geometry"/>
                </mxCell>
                <mxCell id="avJ5hf5BwxIhJb6G5Y0v-5" style="edgeStyle=orthogonalEdgeStyle;rounded=0;orthogonalLoop=1;jettySize=auto;html=1;exitX=1;exitY=0.5;exitDx=0;exitDy=0;" parent="_UozBr8ZX9ysjcTVr0fY-1" source="tEBrmEwOVEdCtfjYQCAZ-3" target="avJ5hf5BwxIhJb6G5Y0v-1" edge="1">
                    <mxGeometry relative="1" as="geometry"/>
                </mxCell>
                <mxCell id="tEBrmEwOVEdCtfjYQCAZ-3" value="Bomba ON" style="ellipse;whiteSpace=wrap;html=1;" parent="_UozBr8ZX9ysjcTVr0fY-1" vertex="1">
                    <mxGeometry x="524" y="270" width="120" height="80" as="geometry"/>
                </mxCell>
                <mxCell id="tEBrmEwOVEdCtfjYQCAZ-5" value="Señal encender bomba /&lt;br&gt;Activar bomba" style="text;html=1;strokeColor=none;fillColor=none;align=center;verticalAlign=middle;whiteSpace=wrap;rounded=0;" parent="_UozBr8ZX9ysjcTVr0fY-1" vertex="1">
                    <mxGeometry x="570" y="220" width="200" height="20" as="geometry"/>
                </mxCell>
                <mxCell id="avJ5hf5BwxIhJb6G5Y0v-7" style="edgeStyle=orthogonalEdgeStyle;rounded=0;orthogonalLoop=1;jettySize=auto;html=1;exitX=0.5;exitY=1;exitDx=0;exitDy=0;entryX=0.5;entryY=1;entryDx=0;entryDy=0;" parent="_UozBr8ZX9ysjcTVr0fY-1" source="avJ5hf5BwxIhJb6G5Y0v-1" target="tEBrmEwOVEdCtfjYQCAZ-3" edge="1">
                    <mxGeometry relative="1" as="geometry"/>
                </mxCell>
                <mxCell id="avJ5hf5BwxIhJb6G5Y0v-1" value="Bomba OFF" style="ellipse;whiteSpace=wrap;html=1;" parent="_UozBr8ZX9ysjcTVr0fY-1" vertex="1">
                    <mxGeometry x="790" y="270" width="120" height="80" as="geometry"/>
                </mxCell>
                <mxCell id="avJ5hf5BwxIhJb6G5Y0v-4" value="Señal apagar bomba /&lt;br&gt;apagar bomba" style="text;html=1;strokeColor=none;fillColor=none;align=center;verticalAlign=middle;whiteSpace=wrap;rounded=0;" parent="_UozBr8ZX9ysjcTVr0fY-1" vertex="1">
                    <mxGeometry x="850" y="220" width="200" height="20" as="geometry"/>
                </mxCell>
                <mxCell id="avJ5hf5BwxIhJb6G5Y0v-6" value="Señal apagar bomba /&lt;br&gt;apagar bomba" style="text;html=1;strokeColor=none;fillColor=none;align=center;verticalAlign=middle;whiteSpace=wrap;rounded=0;" parent="_UozBr8ZX9ysjcTVr0fY-1" vertex="1">
                    <mxGeometry x="610" y="280" width="200" height="20" as="geometry"/>
                </mxCell>
                <mxCell id="avJ5hf5BwxIhJb6G5Y0v-8" value="Señal encender bomba /&lt;br&gt;Activar bomba" style="text;html=1;strokeColor=none;fillColor=none;align=center;verticalAlign=middle;whiteSpace=wrap;rounded=0;" parent="_UozBr8ZX9ysjcTVr0fY-1" vertex="1">
                    <mxGeometry x="620" y="340" width="200" height="20" as="geometry"/>
                </mxCell>
                <mxCell id="avJ5hf5BwxIhJb6G5Y0v-9" value="MEF_bomba" style="text;html=1;strokeColor=none;fillColor=none;align=center;verticalAlign=middle;whiteSpace=wrap;rounded=0;fontSize=18;" parent="_UozBr8ZX9ysjcTVr0fY-1" vertex="1">
                    <mxGeometry x="700" y="60" width="40" height="20" as="geometry"/>
                </mxCell>
                <mxCell id="TXorxHiKbCpRvwFIbyIe-0" value="" style="edgeStyle=orthogonalEdgeStyle;rounded=0;orthogonalLoop=1;jettySize=auto;html=1;" parent="_UozBr8ZX9ysjcTVr0fY-1" source="TXorxHiKbCpRvwFIbyIe-2" target="TXorxHiKbCpRvwFIbyIe-6" edge="1">
                    <mxGeometry relative="1" as="geometry"/>
                </mxCell>
                <mxCell id="TXorxHiKbCpRvwFIbyIe-1" style="edgeStyle=orthogonalEdgeStyle;rounded=0;orthogonalLoop=1;jettySize=auto;html=1;exitX=1;exitY=1;exitDx=0;exitDy=0;entryX=0.5;entryY=0;entryDx=0;entryDy=0;" parent="_UozBr8ZX9ysjcTVr0fY-1" source="TXorxHiKbCpRvwFIbyIe-2" target="TXorxHiKbCpRvwFIbyIe-9" edge="1">
                    <mxGeometry relative="1" as="geometry">
                        <mxPoint x="860" y="670" as="targetPoint"/>
                    </mxGeometry>
                </mxCell>
                <mxCell id="TXorxHiKbCpRvwFIbyIe-2" value="FAN_ Inicio" style="ellipse;whiteSpace=wrap;html=1;" parent="_UozBr8ZX9ysjcTVr0fY-1" vertex="1">
                    <mxGeometry x="534" y="500" width="120" height="80" as="geometry"/>
                </mxCell>
                <mxCell id="TXorxHiKbCpRvwFIbyIe-3" value="" style="endArrow=classic;html=1;entryX=0;entryY=0;entryDx=0;entryDy=0;" parent="_UozBr8ZX9ysjcTVr0fY-1" target="TXorxHiKbCpRvwFIbyIe-2" edge="1">
                    <mxGeometry width="50" height="50" relative="1" as="geometry">
                        <mxPoint x="500" y="490" as="sourcePoint"/>
                        <mxPoint x="460" y="470" as="targetPoint"/>
                        <Array as="points">
                            <mxPoint x="540" y="490"/>
                        </Array>
                    </mxGeometry>
                </mxCell>
                <mxCell id="TXorxHiKbCpRvwFIbyIe-4" value="Reset" style="text;html=1;strokeColor=none;fillColor=none;align=center;verticalAlign=middle;whiteSpace=wrap;rounded=0;" parent="_UozBr8ZX9ysjcTVr0fY-1" vertex="1">
                    <mxGeometry x="460" y="480" width="40" height="20" as="geometry"/>
                </mxCell>
                <mxCell id="TXorxHiKbCpRvwFIbyIe-5" style="edgeStyle=orthogonalEdgeStyle;rounded=0;orthogonalLoop=1;jettySize=auto;html=1;exitX=1;exitY=0.5;exitDx=0;exitDy=0;" parent="_UozBr8ZX9ysjcTVr0fY-1" source="TXorxHiKbCpRvwFIbyIe-6" target="TXorxHiKbCpRvwFIbyIe-9" edge="1">
                    <mxGeometry relative="1" as="geometry"/>
                </mxCell>
                <mxCell id="TXorxHiKbCpRvwFIbyIe-6" value="FAN ON" style="ellipse;whiteSpace=wrap;html=1;" parent="_UozBr8ZX9ysjcTVr0fY-1" vertex="1">
                    <mxGeometry x="534" y="660" width="120" height="80" as="geometry"/>
                </mxCell>
                <mxCell id="TXorxHiKbCpRvwFIbyIe-7" value="Señal encender FAN /&lt;br&gt;Activar FAN" style="text;html=1;strokeColor=none;fillColor=none;align=center;verticalAlign=middle;whiteSpace=wrap;rounded=0;" parent="_UozBr8ZX9ysjcTVr0fY-1" vertex="1">
                    <mxGeometry x="580" y="610" width="200" height="20" as="geometry"/>
                </mxCell>
                <mxCell id="TXorxHiKbCpRvwFIbyIe-8" style="edgeStyle=orthogonalEdgeStyle;rounded=0;orthogonalLoop=1;jettySize=auto;html=1;exitX=0.5;exitY=1;exitDx=0;exitDy=0;entryX=0.5;entryY=1;entryDx=0;entryDy=0;" parent="_UozBr8ZX9ysjcTVr0fY-1" source="TXorxHiKbCpRvwFIbyIe-9" target="TXorxHiKbCpRvwFIbyIe-6" edge="1">
                    <mxGeometry relative="1" as="geometry"/>
                </mxCell>
                <mxCell id="TXorxHiKbCpRvwFIbyIe-9" value="FAN OFF" style="ellipse;whiteSpace=wrap;html=1;" parent="_UozBr8ZX9ysjcTVr0fY-1" vertex="1">
                    <mxGeometry x="800" y="660" width="120" height="80" as="geometry"/>
                </mxCell>
                <mxCell id="TXorxHiKbCpRvwFIbyIe-10" value="Señal apagar FAN /&lt;br&gt;apagar FAN" style="text;html=1;strokeColor=none;fillColor=none;align=center;verticalAlign=middle;whiteSpace=wrap;rounded=0;" parent="_UozBr8ZX9ysjcTVr0fY-1" vertex="1">
                    <mxGeometry x="860" y="610" width="200" height="20" as="geometry"/>
                </mxCell>
                <mxCell id="TXorxHiKbCpRvwFIbyIe-11" value="Señal apagar FAN /&lt;br&gt;apagar FAN" style="text;html=1;strokeColor=none;fillColor=none;align=center;verticalAlign=middle;whiteSpace=wrap;rounded=0;" parent="_UozBr8ZX9ysjcTVr0fY-1" vertex="1">
                    <mxGeometry x="620" y="670" width="200" height="20" as="geometry"/>
                </mxCell>
                <mxCell id="TXorxHiKbCpRvwFIbyIe-12" value="Señal encender FAN /&lt;br&gt;Activar FAN" style="text;html=1;strokeColor=none;fillColor=none;align=center;verticalAlign=middle;whiteSpace=wrap;rounded=0;" parent="_UozBr8ZX9ysjcTVr0fY-1" vertex="1">
                    <mxGeometry x="630" y="730" width="200" height="20" as="geometry"/>
                </mxCell>
                <mxCell id="TXorxHiKbCpRvwFIbyIe-13" value="MEF_ventilación" style="text;html=1;strokeColor=none;fillColor=none;align=center;verticalAlign=middle;whiteSpace=wrap;rounded=0;fontSize=18;" parent="_UozBr8ZX9ysjcTVr0fY-1" vertex="1">
                    <mxGeometry x="710" y="450" width="110" height="20" as="geometry"/>
                </mxCell>
            </root>
        </mxGraphModel>
    </diagram>
    <diagram id="HL6tjgWBnDIgTdHz9zKU" name="Menú">
        <mxGraphModel dx="1647" dy="478" grid="1" gridSize="10" guides="1" tooltips="1" connect="1" arrows="1" fold="1" page="1" pageScale="1" pageWidth="827" pageHeight="1169" math="0" shadow="0">
            <root>
                <mxCell id="paPa3PDW3CFfpl05ZDGK-0"/>
                <mxCell id="paPa3PDW3CFfpl05ZDGK-1" parent="paPa3PDW3CFfpl05ZDGK-0"/>
                <mxCell id="6HcinxMK06FJ3lXQDpBo-1" value="PULSADOR = O&amp;nbsp;" style="edgeStyle=orthogonalEdgeStyle;rounded=0;orthogonalLoop=1;jettySize=auto;html=1;exitX=1;exitY=0;exitDx=0;exitDy=0;" parent="paPa3PDW3CFfpl05ZDGK-1" edge="1">
                    <mxGeometry x="-0.0618" y="48" relative="1" as="geometry">
                        <mxPoint x="372" y="200" as="targetPoint"/>
                        <mxPoint x="344.4264068711934" y="168.7867965644033" as="sourcePoint"/>
                        <mxPoint as="offset"/>
                    </mxGeometry>
                </mxCell>
                <mxCell id="6HcinxMK06FJ3lXQDpBo-3" value="pulsador = 1" style="edgeStyle=orthogonalEdgeStyle;rounded=0;orthogonalLoop=1;jettySize=auto;html=1;" parent="paPa3PDW3CFfpl05ZDGK-1" source="paPa3PDW3CFfpl05ZDGK-2" target="6HcinxMK06FJ3lXQDpBo-2" edge="1">
                    <mxGeometry relative="1" as="geometry"/>
                </mxCell>
                <mxCell id="paPa3PDW3CFfpl05ZDGK-2" value="INICIO" style="ellipse;whiteSpace=wrap;html=1;" parent="paPa3PDW3CFfpl05ZDGK-1" vertex="1">
                    <mxGeometry x="240" y="160" width="120" height="60" as="geometry"/>
                </mxCell>
                <mxCell id="6HcinxMK06FJ3lXQDpBo-0" value="RESET" style="endArrow=classic;html=1;" parent="paPa3PDW3CFfpl05ZDGK-1" edge="1">
                    <mxGeometry width="50" height="50" relative="1" as="geometry">
                        <mxPoint x="200" y="130" as="sourcePoint"/>
                        <mxPoint x="250" y="170" as="targetPoint"/>
                    </mxGeometry>
                </mxCell>
                <mxCell id="6HcinxMK06FJ3lXQDpBo-5" value="/lcd -&amp;gt; &quot;coonfiguración&quot;" style="edgeStyle=orthogonalEdgeStyle;rounded=0;orthogonalLoop=1;jettySize=auto;html=1;" parent="paPa3PDW3CFfpl05ZDGK-1" source="6HcinxMK06FJ3lXQDpBo-2" target="6HcinxMK06FJ3lXQDpBo-4" edge="1">
                    <mxGeometry relative="1" as="geometry"/>
                </mxCell>
                <mxCell id="6HcinxMK06FJ3lXQDpBo-2" value="Menú de selección" style="ellipse;whiteSpace=wrap;html=1;" parent="paPa3PDW3CFfpl05ZDGK-1" vertex="1">
                    <mxGeometry x="240" y="290" width="120" height="60" as="geometry"/>
                </mxCell>
                <mxCell id="KnxdvD3JjIZdl70WuMHg-1" value="pulsador =!" style="edgeStyle=orthogonalEdgeStyle;rounded=0;orthogonalLoop=1;jettySize=auto;html=1;" parent="paPa3PDW3CFfpl05ZDGK-1" source="6HcinxMK06FJ3lXQDpBo-4" target="KnxdvD3JjIZdl70WuMHg-0" edge="1">
                    <mxGeometry relative="1" as="geometry">
                        <Array as="points">
                            <mxPoint x="300" y="500"/>
                            <mxPoint x="300" y="500"/>
                        </Array>
                    </mxGeometry>
                </mxCell>
                <mxCell id="KnxdvD3JjIZdl70WuMHg-3" value="rotacion der" style="edgeStyle=orthogonalEdgeStyle;rounded=0;orthogonalLoop=1;jettySize=auto;html=1;" parent="paPa3PDW3CFfpl05ZDGK-1" source="6HcinxMK06FJ3lXQDpBo-4" target="KnxdvD3JjIZdl70WuMHg-2" edge="1">
                    <mxGeometry relative="1" as="geometry"/>
                </mxCell>
                <mxCell id="KnxdvD3JjIZdl70WuMHg-5" value="" style="edgeStyle=orthogonalEdgeStyle;rounded=0;orthogonalLoop=1;jettySize=auto;html=1;" parent="paPa3PDW3CFfpl05ZDGK-1" source="6HcinxMK06FJ3lXQDpBo-4" target="KnxdvD3JjIZdl70WuMHg-4" edge="1">
                    <mxGeometry relative="1" as="geometry"/>
                </mxCell>
                <mxCell id="igw3KXgd_9O2uzPfZb7G-0" value="rotacion izq" style="edgeLabel;html=1;align=center;verticalAlign=middle;resizable=0;points=[];" parent="KnxdvD3JjIZdl70WuMHg-5" vertex="1" connectable="0">
                    <mxGeometry x="-0.2466" relative="1" as="geometry">
                        <mxPoint as="offset"/>
                    </mxGeometry>
                </mxCell>
                <mxCell id="6HcinxMK06FJ3lXQDpBo-4" value="Configuración" style="ellipse;whiteSpace=wrap;html=1;" parent="paPa3PDW3CFfpl05ZDGK-1" vertex="1">
                    <mxGeometry x="240" y="400" width="120" height="60" as="geometry"/>
                </mxCell>
                <mxCell id="KnxdvD3JjIZdl70WuMHg-0" value="Configuración opciones" style="ellipse;whiteSpace=wrap;html=1;" parent="paPa3PDW3CFfpl05ZDGK-1" vertex="1">
                    <mxGeometry x="240" y="540" width="120" height="60" as="geometry"/>
                </mxCell>
                <mxCell id="igw3KXgd_9O2uzPfZb7G-2" value="rotación der" style="edgeStyle=orthogonalEdgeStyle;rounded=0;orthogonalLoop=1;jettySize=auto;html=1;" parent="paPa3PDW3CFfpl05ZDGK-1" source="KnxdvD3JjIZdl70WuMHg-2" target="igw3KXgd_9O2uzPfZb7G-1" edge="1">
                    <mxGeometry relative="1" as="geometry"/>
                </mxCell>
                <mxCell id="igw3KXgd_9O2uzPfZb7G-5" value="rotacion izq" style="edgeStyle=orthogonalEdgeStyle;rounded=0;orthogonalLoop=1;jettySize=auto;html=1;exitX=0.5;exitY=1;exitDx=0;exitDy=0;entryX=1;entryY=1;entryDx=0;entryDy=0;" parent="paPa3PDW3CFfpl05ZDGK-1" source="KnxdvD3JjIZdl70WuMHg-2" target="6HcinxMK06FJ3lXQDpBo-4" edge="1">
                    <mxGeometry relative="1" as="geometry">
                        <Array as="points">
                            <mxPoint x="500" y="480"/>
                            <mxPoint x="343" y="480"/>
                        </Array>
                    </mxGeometry>
                </mxCell>
                <mxCell id="igw3KXgd_9O2uzPfZb7G-8" style="edgeStyle=orthogonalEdgeStyle;rounded=0;orthogonalLoop=1;jettySize=auto;html=1;" parent="paPa3PDW3CFfpl05ZDGK-1" source="KnxdvD3JjIZdl70WuMHg-2" edge="1">
                    <mxGeometry relative="1" as="geometry">
                        <mxPoint x="500" y="560" as="targetPoint"/>
                    </mxGeometry>
                </mxCell>
                <mxCell id="KnxdvD3JjIZdl70WuMHg-2" value="automático" style="ellipse;whiteSpace=wrap;html=1;" parent="paPa3PDW3CFfpl05ZDGK-1" vertex="1">
                    <mxGeometry x="440" y="400" width="120" height="60" as="geometry"/>
                </mxCell>
                <mxCell id="igw3KXgd_9O2uzPfZb7G-4" value="rot izq" style="edgeStyle=orthogonalEdgeStyle;rounded=0;orthogonalLoop=1;jettySize=auto;html=1;" parent="paPa3PDW3CFfpl05ZDGK-1" source="KnxdvD3JjIZdl70WuMHg-4" target="igw3KXgd_9O2uzPfZb7G-3" edge="1">
                    <mxGeometry relative="1" as="geometry"/>
                </mxCell>
                <mxCell id="igw3KXgd_9O2uzPfZb7G-6" value="rot der" style="edgeStyle=orthogonalEdgeStyle;rounded=0;orthogonalLoop=1;jettySize=auto;html=1;exitX=0.5;exitY=1;exitDx=0;exitDy=0;entryX=0.294;entryY=0.983;entryDx=0;entryDy=0;entryPerimeter=0;" parent="paPa3PDW3CFfpl05ZDGK-1" source="KnxdvD3JjIZdl70WuMHg-4" target="6HcinxMK06FJ3lXQDpBo-4" edge="1">
                    <mxGeometry relative="1" as="geometry">
                        <Array as="points">
                            <mxPoint x="100" y="480"/>
                            <mxPoint x="275" y="480"/>
                        </Array>
                    </mxGeometry>
                </mxCell>
                <mxCell id="igw3KXgd_9O2uzPfZb7G-17" value="" style="edgeStyle=orthogonalEdgeStyle;rounded=0;orthogonalLoop=1;jettySize=auto;html=1;" parent="paPa3PDW3CFfpl05ZDGK-1" source="KnxdvD3JjIZdl70WuMHg-4" target="igw3KXgd_9O2uzPfZb7G-16" edge="1">
                    <mxGeometry relative="1" as="geometry"/>
                </mxCell>
                <mxCell id="KnxdvD3JjIZdl70WuMHg-4" value="manual" style="ellipse;whiteSpace=wrap;html=1;" parent="paPa3PDW3CFfpl05ZDGK-1" vertex="1">
                    <mxGeometry x="40" y="400" width="120" height="60" as="geometry"/>
                </mxCell>
                <mxCell id="igw3KXgd_9O2uzPfZb7G-1" value="manual" style="shape=singleArrow;whiteSpace=wrap;html=1;arrowWidth=0.4;arrowSize=0.4;" parent="paPa3PDW3CFfpl05ZDGK-1" vertex="1">
                    <mxGeometry x="660" y="400" width="80" height="60" as="geometry"/>
                </mxCell>
                <mxCell id="igw3KXgd_9O2uzPfZb7G-3" value="automático" style="shape=singleArrow;whiteSpace=wrap;html=1;arrowWidth=0.4;arrowSize=0.4;flipH=1;" parent="paPa3PDW3CFfpl05ZDGK-1" vertex="1">
                    <mxGeometry x="-150" y="400" width="80" height="60" as="geometry"/>
                </mxCell>
                <mxCell id="igw3KXgd_9O2uzPfZb7G-9" value="cdr automático" style="ellipse;whiteSpace=wrap;html=1;" parent="paPa3PDW3CFfpl05ZDGK-1" vertex="1">
                    <mxGeometry x="440" y="540" width="120" height="60" as="geometry"/>
                </mxCell>
                <mxCell id="igw3KXgd_9O2uzPfZb7G-16" value="cdr manual" style="ellipse;whiteSpace=wrap;html=1;" parent="paPa3PDW3CFfpl05ZDGK-1" vertex="1">
                    <mxGeometry x="40" y="540" width="120" height="60" as="geometry"/>
                </mxCell>
            </root>
        </mxGraphModel>
    </diagram>
</mxfile>